<svg xmlns:dc="http://purl.org/dc/elements/1.1/" xmlns:cc="http://creativecommons.org/ns#" xmlns:rdf="http://www.w3.org/1999/02/22-rdf-syntax-ns#" xmlns:svg="http://www.w3.org/2000/svg" xmlns="http://www.w3.org/2000/svg" xmlns:sodipodi="http://sodipodi.sourceforge.net/DTD/sodipodi-0.dtd" xmlns:inkscape="http://www.inkscape.org/namespaces/inkscape" version="1.1" x="0px" y="0px" viewBox="0 0 100 125"><g transform="translate(0,-952.36218)"><path style="font-size:medium;font-style:normal;font-variant:normal;font-weight:normal;font-stretch:normal;text-indent:0;text-align:start;text-decoration:none;line-height:normal;letter-spacing:normal;word-spacing:normal;text-transform:none;direction:ltr;block-progression:tb;writing-mode:lr-tb;text-anchor:start;baseline-shift:baseline;opacity:1;color:#FFFFFF;fill:#FFFFFFF;fill-opacity:1;stroke:none;stroke-width:1.99999964000000000;marker:none;visibility:visible;display:inline;overflow:visible;enable-background:accumulate;font-family:Sans;-inkscape-font-specification:Sans" d="M 23.8125 22 A 1.0000998 1.0000998 0 0 0 23 23 L 23 37 L 16 37 A 1.0000998 1.0000998 0 0 0 15 38 L 15 73.15625 C 15 75.81855 17.182771 78 19.84375 78 L 58.15625 78 C 60.817221 78 63 75.81855 63 73.15625 L 63 69.28125 L 84.875 32.5 A 1.0000998 1.0000998 0 0 0 84.53125 31.125 L 76.53125 26.125 A 1.0000998 1.0000998 0 0 0 75.84375 26 A 1.0000998 1.0000998 0 0 0 75.125 26.46875 L 71.09375 33.21875 L 67.5 31.125 A 1.0000998 1.0000998 0 0 0 66.84375 31 A 1.0000998 1.0000998 0 0 0 66.15625 31.46875 L 63 36.5 L 63 23 A 1.0000998 1.0000998 0 0 0 62 22 L 24 22 A 1.0000998 1.0000998 0 0 0 23.8125 22 z M 25 24 L 61 24 L 61 50.21875 L 55.65625 59.25 A 1.0000998 1.0000998 0 0 0 55 59 L 46 59 A 1.0000998 1.0000998 0 0 0 45.8125 59 A 1.0043849 1.0043849 0 0 0 46 61 L 54.59375 61 L 53.125 63.46875 A 1.0000998 1.0000998 0 0 0 53 64 L 46 64 A 1.0000998 1.0000998 0 0 0 45.8125 64 A 1.0043849 1.0043849 0 0 0 46 66 L 53 66 L 53 69 L 46 69 A 1.0000998 1.0000998 0 0 0 45.8125 69 A 1.0043849 1.0043849 0 0 0 46 71 L 53 71 L 53 73 A 1.0000998 1.0000998 0 0 0 54.4375 73.875 L 61 70.59375 L 61 73.15625 C 61 74.74645 59.742599 76 58.15625 76 L 23.90625 76 C 24.553406 75.2129 25 74.25885 25 73.15625 L 25 24 z M 76.34375 28.40625 L 82.625 32.3125 L 79.25 37.96875 L 72.875 34.25 L 76.34375 28.40625 z M 30.8125 29 A 1.0000998 1.0000998 0 0 0 30 30 L 30 44 A 1.0000998 1.0000998 0 0 0 31 45 L 55 45 A 1.0000998 1.0000998 0 0 0 56 44 L 56 30 A 1.0000998 1.0000998 0 0 0 55 29 L 31 29 A 1.0000998 1.0000998 0 0 0 30.8125 29 z M 32 31 L 54 31 L 54 43 L 32 43 L 32 31 z M 67.34375 33.34375 L 70.09375 34.9375 L 63 46.875 L 63 40.25 L 67.34375 33.34375 z M 71.84375 35.96875 L 78.25 39.6875 L 61.25 68.25 L 55 71.375 L 55 64.28125 L 71.84375 35.96875 z M 17 39 L 23 39 L 23 73.15625 C 23 74.46445 21.6731 75.7076 20.3125 75.9375 A 1.0000998 1.0000998 0 0 0 20.125 76 L 19.84375 76 C 18.257389 76.0005 17 74.74645 17 73.15625 L 17 39 z M 30.8125 49 A 1.0043849 1.0043849 0 0 0 31 51 L 40 51 A 1.0000998 1.0000998 0 1 0 40 49 L 31 49 A 1.0000998 1.0000998 0 0 0 30.8125 49 z M 45.8125 49 A 1.0043849 1.0043849 0 0 0 46 51 L 55 51 A 1.0000998 1.0000998 0 1 0 55 49 L 46 49 A 1.0000998 1.0000998 0 0 0 45.8125 49 z M 30.8125 54 A 1.0043849 1.0043849 0 0 0 31 56 L 40 56 A 1.0000998 1.0000998 0 1 0 40 54 L 31 54 A 1.0000998 1.0000998 0 0 0 30.8125 54 z M 45.8125 54 A 1.0043849 1.0043849 0 0 0 46 56 L 55 56 A 1.0000998 1.0000998 0 1 0 55 54 L 46 54 A 1.0000998 1.0000998 0 0 0 45.8125 54 z M 30.8125 59 A 1.0043849 1.0043849 0 0 0 31 61 L 40 61 A 1.0000998 1.0000998 0 1 0 40 59 L 31 59 A 1.0000998 1.0000998 0 0 0 30.8125 59 z M 30.8125 64 A 1.0043849 1.0043849 0 0 0 31 66 L 40 66 A 1.0000998 1.0000998 0 1 0 40 64 L 31 64 A 1.0000998 1.0000998 0 0 0 30.8125 64 z M 30.8125 69 A 1.0043849 1.0043849 0 0 0 31 71 L 40 71 A 1.0000998 1.0000998 0 1 0 40 69 L 31 69 A 1.0000998 1.0000998 0 0 0 30.8125 69 z " transform="translate(0,952.36218)"/></g></svg>